<?xml version="1.0" encoding="UTF-8"?>
<svg id="uuid-4ee25646-af79-4ad3-a89c-2411699cc08e" data-name="图层 1" xmlns="http://www.w3.org/2000/svg" viewBox="0 0 520.26 61.14">
  <defs>
    <style>
      .uuid-ff6a651a-1013-4e9e-87f0-81dd7940e39c {
        fill: #fff;
      }
    </style>
  </defs>
  <path class="uuid-ff6a651a-1013-4e9e-87f0-81dd7940e39c" d="m493.05,59.16h-9.85c-1.16,0-1.77-.46-2.08-.85s-.64-1.11-.37-2.29l8.72-38.74h-8.99c-1.16,0-1.77-.46-2.08-.85-.32-.39-.64-1.11-.37-2.29l2.11-9.37c.39-1.75,1.67-2.79,3.43-2.79h34.15c1.16,0,1.77.46,2.08.85s.64,1.11.37,2.29l-2.11,9.37c-.4,1.75-1.68,2.79-3.44,2.79h-9.34l-8.8,39.08c-.4,1.75-1.68,2.79-3.44,2.79Zm-9.48-55.59c-1,0-1.66.54-1.88,1.55l-2.11,9.37c-.1.44-.08.78.06.95.13.16.43.25.84.25h10.97l-9.16,40.67c-.1.44-.08.77.06.95.13.16.43.25.84.25h9.85c1,0,1.66-.54,1.89-1.55l9.08-40.32h10.61c1,0,1.66-.54,1.89-1.55l2.11-9.37c.1-.44.08-.77-.06-.95-.13-.16-.43-.25-.85-.25h-34.15Z"/>
  <g>
    <path class="uuid-ff6a651a-1013-4e9e-87f0-81dd7940e39c" d="m37.93,0C20.69,0,4.76,12.99.88,30.22c-2.01,8.91-.55,17.01,4.09,22.81,4.18,5.23,10.69,8.1,18.33,8.1,5.9,0,11.11-1.46,15.52-4.34-.01.95.32,1.59.64,2,.42.52,1.23,1.15,2.7,1.15h8.31c2.12,0,3.73-1.31,4.21-3.41l3.73-16.57,2.18-9.69c.33-1.48-.1-2.43-.53-2.96-.41-.51-1.2-1.12-2.62-1.15-.03,0-.06,0-.08,0h-22.66c-2.12,0-3.74,1.31-4.21,3.41l-1.69,7.52c-.33,1.48.1,2.43.53,2.96.42.52,1.23,1.15,2.71,1.15h6.35c-2.69,2.39-6.34,3.67-10.56,3.67-3.58,0-6.39-1.15-8.14-3.34-2-2.5-2.52-6.17-1.52-10.63,1.87-8.29,8.59-13.87,16.72-13.87,4.15,0,7.6,1.65,8.99,4.31.8,1.55,1.97,2.28,3.68,2.28h10.63c1.26,0,2.36-.45,3.08-1.27.69-.77.99-1.82.86-2.95C60.9,8,50.95,0,37.93,0Zm-21.83,35.61s0,.01,0,.02c0,0,0-.01,0-.02Zm41.27-7.85h0s0,0,0,0h0Z"/>
    <path class="uuid-ff6a651a-1013-4e9e-87f0-81dd7940e39c" d="m101.41,0c-17.07,0-33.42,13.27-37.24,30.22-1.9,8.43-.38,16.28,4.26,22.09,4.55,5.69,11.63,8.83,19.93,8.83,17.07,0,33.42-13.27,37.24-30.22,1.9-8.43.38-16.28-4.26-22.09-4.55-5.69-11.63-8.83-19.93-8.83Zm-9.92,44.09c-3.6,0-6.59-1.25-8.41-3.53-1.9-2.38-2.48-5.8-1.61-9.64,1.81-8.04,8.89-13.87,16.83-13.87,3.6,0,6.59,1.25,8.41,3.53,1.9,2.38,2.48,5.8,1.61,9.64-1.81,8.04-8.89,13.87-16.83,13.87Z"/>
    <path class="uuid-ff6a651a-1013-4e9e-87f0-81dd7940e39c" d="m185.26,8.83c-4.55-5.69-11.63-8.83-19.93-8.83-17.07,0-33.42,13.27-37.24,30.22-1.9,8.43-.38,16.28,4.26,22.09,4.55,5.69,11.63,8.83,19.93,8.83,17.07,0,33.42-13.27,37.24-30.22,1.9-8.43.38-16.28-4.26-22.09Zm-29.85,35.26c-3.6,0-6.59-1.25-8.41-3.53-1.9-2.38-2.48-5.8-1.61-9.64,1.81-8.04,8.89-13.87,16.83-13.87,3.6,0,6.59,1.25,8.41,3.53,1.9,2.38,2.48,5.8,1.61,9.64-1.81,8.04-8.89,13.87-16.83,13.87Z"/>
    <path class="uuid-ff6a651a-1013-4e9e-87f0-81dd7940e39c" d="m244.5,9.27c-4.17-5.21-10.67-8.08-18.29-8.08-.02,0-.05,0-.07,0h-21.95c-2.12,0-3.73,1.31-4.21,3.41l-11.54,51.25c-.33,1.48.1,2.43.53,2.96.42.52,1.23,1.15,2.7,1.15h22.02c16.12,0,31.08-12.48,34.81-29.03,1.89-8.38.46-16.06-4-21.65Zm-13.03,20.95c-1.73,7.68-7.63,12.84-14.69,12.84h-7.65l5.62-24.99h8.36c3.09,0,5.52,1,7.03,2.88,1.71,2.14,2.18,5.43,1.32,9.26Z"/>
  </g>
  <path class="uuid-ff6a651a-1013-4e9e-87f0-81dd7940e39c" d="m470.8,56.71c0,.32-.11.6-.28.84.18-.24.28-.53.28-.84Z"/>
  <polygon class="uuid-ff6a651a-1013-4e9e-87f0-81dd7940e39c" points="354.04 25.65 347.17 56.19 354.04 25.65 354.04 25.65"/>
  <path class="uuid-ff6a651a-1013-4e9e-87f0-81dd7940e39c" d="m328.38,48.75c.17,1.18.88,1.7,2.11,1.7h0c-1.22,0-1.94-.52-2.11-1.7Z"/>
  <path class="uuid-ff6a651a-1013-4e9e-87f0-81dd7940e39c" d="m358.7,58.36h0c1.04,0,1.84-.44,2.31-1.25-.47.8-1.27,1.25-2.31,1.25Z"/>
  <polygon class="uuid-ff6a651a-1013-4e9e-87f0-81dd7940e39c" points="324.61 25.65 328.38 48.75 324.61 25.65 324.61 25.65"/>
  <path class="uuid-ff6a651a-1013-4e9e-87f0-81dd7940e39c" d="m316.78,2.92c-.87.29-1.47.99-1.7,2.02.23-1.04.84-1.74,1.7-2.02Z"/>
  <polygon class="uuid-ff6a651a-1013-4e9e-87f0-81dd7940e39c" points="470.54 55.68 470.54 55.68 470.53 55.68 470.54 55.68"/>
  <path class="uuid-ff6a651a-1013-4e9e-87f0-81dd7940e39c" d="m439.16,2.74c-.69,0-1.28.2-1.73.57.45-.37,1.04-.57,1.73-.57h0Z"/>
  <path class="uuid-ff6a651a-1013-4e9e-87f0-81dd7940e39c" d="m416.65,58.36c.39,0,.75-.06,1.06-.17-.31.11-.67.17-1.06.17h0Z"/>
  <path class="uuid-ff6a651a-1013-4e9e-87f0-81dd7940e39c" d="m418.94,56.93c.09-.3.12-.64.07-1.02h0c.04.38.02.72-.07,1.02Z"/>
  <path class="uuid-ff6a651a-1013-4e9e-87f0-81dd7940e39c" d="m381.86,57.35c.2-.23.39-.51.55-.84l1.88-3.69-1.88,3.69c-.16.33-.35.6-.55.84Z"/>
  <path class="uuid-ff6a651a-1013-4e9e-87f0-81dd7940e39c" d="m411.77,2.78h0c.61,0,1.11.15,1.47.45-.36-.3-.86-.45-1.47-.45Z"/>
  <polygon class="uuid-ff6a651a-1013-4e9e-87f0-81dd7940e39c" points="419.02 55.92 416.43 30.25 419.02 55.92 419.02 55.92"/>
  <path class="uuid-ff6a651a-1013-4e9e-87f0-81dd7940e39c" d="m379.55,58.36c.61,0,1.16-.14,1.65-.44-.48.3-1.04.44-1.65.44h0Z"/>
  <path class="uuid-ff6a651a-1013-4e9e-87f0-81dd7940e39c" d="m403.42,50.37h0l.36,6.14c0,.06.02.09.03.14,0-.05-.03-.09-.03-.14l-.36-6.14Z"/>
  <path class="uuid-ff6a651a-1013-4e9e-87f0-81dd7940e39c" d="m371.21,2.78h0c.69,0,1.19.2,1.48.57-.29-.37-.78-.57-1.48-.57Z"/>
  <path class="uuid-ff6a651a-1013-4e9e-87f0-81dd7940e39c" d="m315.07,58.36c.69,0,1.28-.2,1.73-.57-.45.37-1.04.57-1.73.57h0Z"/>
  <path class="uuid-ff6a651a-1013-4e9e-87f0-81dd7940e39c" d="m356.01,3.71c-.21.21-.4.47-.58.76l-8.93,14.49,8.93-14.49c.18-.3.37-.55.58-.76Z"/>
  <path class="uuid-ff6a651a-1013-4e9e-87f0-81dd7940e39c" d="m464.91,44.85l-3.7-7.13c.8-.4,1.57-.84,2.32-1.31-.75.48-1.52.91-2.32,1.31l3.7,7.13Z"/>
  <path class="uuid-ff6a651a-1013-4e9e-87f0-81dd7940e39c" d="m338.77,49.93c-.19.12-.39.22-.6.29.21-.08.41-.17.6-.29Z"/>
  <path class="uuid-ff6a651a-1013-4e9e-87f0-81dd7940e39c" d="m439.15,56.16c-.16.69-.47,1.23-.93,1.6.45-.37.77-.91.93-1.6Z"/>
  <path class="uuid-ff6a651a-1013-4e9e-87f0-81dd7940e39c" d="m426.64,58.33c-.69,0-1.19-.2-1.48-.57.29.37.78.57,1.48.57Z"/>
  <polygon class="uuid-ff6a651a-1013-4e9e-87f0-81dd7940e39c" points="337.57 33.45 335.16 18.96 337.57 33.45 337.57 33.45"/>
  <path class="uuid-ff6a651a-1013-4e9e-87f0-81dd7940e39c" d="m457.47,58.33h0c-.29,0-.55-.02-.79-.07.24.05.5.07.79.07Z"/>
  <path class="uuid-ff6a651a-1013-4e9e-87f0-81dd7940e39c" d="m361.35,56.19c-.08.35-.2.65-.35.92-.47.8-1.27,1.25-2.31,1.25h-9.85c-1.04,0-1.64-.44-1.74-1.25-.04-.27-.01-.58.06-.92l6.88-30.55-14.18,23.11c-.31.53-.68.9-1.1,1.18-.19.12-.39.22-.6.29-.36.13-.74.22-1.17.22h-6.51c-1.22,0-1.94-.51-2.11-1.7l-3.77-23.11-6.88,30.55c-.16.69-.47,1.23-.93,1.6-.45.37-1.04.57-1.73.57h-9.85c-1.04,0-1.64-.44-1.74-1.25-.04-.27-.02-.58.06-.92l11.54-51.25c.23-1.04.84-1.74,1.7-2.02.29-.1.61-.14.95-.14h12.86c.92,0,1.57.29,1.91.93.11.21.19.47.23.76l2.41,14.49,2.41,14.49,8.93-14.49,8.93-14.49c.18-.3.37-.55.58-.76.63-.64,1.41-.93,2.33-.93h12.87c.69,0,1.19.2,1.48.57.29.37.36.91.21,1.6l-.83,3.68h1.63l.75-3.33c.33-1.48-.1-2.43-.53-2.96-.42-.52-1.23-1.15-2.7-1.15h-12.86c-1.84,0-3.31.85-4.27,2.47l-15.63,25.35-4.13-24.8c-.27-1.88-1.66-3.02-3.71-3.02h-12.86c-2.12,0-3.73,1.31-4.21,3.41l-11.54,51.25c-.33,1.48.1,2.43.53,2.96.42.52,1.23,1.15,2.7,1.15h9.85c2.12,0,3.73-1.31,4.21-3.41l5.08-22.56,2.45,15.03c.27,1.91,1.61,3.03,3.67,3.03h6.51c1.81,0,3.28-.86,4.24-2.47l9.16-14.93-4.77,21.21c-.33,1.48.1,2.43.53,2.96.42.52,1.23,1.15,2.7,1.15h9.85c2.12,0,3.73-1.31,4.21-3.41l6.38-28.35c-.53-.1-1.03-.26-1.53-.44l-6.4,28.44Z"/>
  <polygon class="uuid-ff6a651a-1013-4e9e-87f0-81dd7940e39c" points="317.73 56.19 324.61 25.65 324.61 25.65 317.73 56.19"/>
  <path class="uuid-ff6a651a-1013-4e9e-87f0-81dd7940e39c" d="m303.48,57.11c.11.8.71,1.25,1.74,1.25h0c-1.04,0-1.64-.44-1.74-1.25Z"/>
  <path class="uuid-ff6a651a-1013-4e9e-87f0-81dd7940e39c" d="m337,50.45c.43,0,.81-.09,1.17-.22-.36.13-.74.22-1.17.22h0Z"/>
  <path class="uuid-ff6a651a-1013-4e9e-87f0-81dd7940e39c" d="m358.34,2.78c-.92,0-1.7.29-2.33.93.63-.64,1.41-.93,2.33-.93h0Z"/>
  <path class="uuid-ff6a651a-1013-4e9e-87f0-81dd7940e39c" d="m347.1,57.11c.11.8.71,1.25,1.74,1.25h0c-1.04,0-1.64-.44-1.74-1.25Z"/>
  <path class="uuid-ff6a651a-1013-4e9e-87f0-81dd7940e39c" d="m416.43,30.25l2.58,25.66h0c.04.38.02.72-.07,1.02-.18.6-.61,1.04-1.23,1.26-.31.11-.67.17-1.06.17h-10.84c-.61,0-1.1-.14-1.45-.44-.32-.27-.5-.71-.55-1.27,0-.05-.03-.09-.03-.14l-.36-6.14h-17.88l-1.25,2.45-1.88,3.69c-.16.33-.35.6-.55.84-.2.23-.43.43-.67.58-.48.3-1.04.44-1.65.44h-10.84c-.79,0-1.32-.24-1.54-.66-.23-.42-.15-1.04.28-1.79l15.18-27.55h-1.81l-14.76,26.78c-.95,1.67-.56,2.84-.24,3.38.31.53,1.09,1.42,2.9,1.42h10.84c1.89,0,3.41-.97,4.28-2.73l2.68-5.26h15.41l.27,4.65c.1,2.06,1.48,3.35,3.61,3.35h10.84c1.27,0,2.37-.45,3.09-1.26.68-.77.99-1.82.86-2.96l-2.76-27.37h-1.6l.19,1.89Z"/>
  <path class="uuid-ff6a651a-1013-4e9e-87f0-81dd7940e39c" d="m395.72,4.59c.32-.61.73-1.07,1.23-1.37.49-.3,1.06-.45,1.67-.45h13.15c.61,0,1.11.15,1.47.45.18.15.32.34.42.57s.17.49.19.8l.41,4.04h1.6l-.42-4.2c-.13-1.95-1.56-3.25-3.66-3.25h-13.15c-1.86,0-3.43.98-4.31,2.68l-2.62,4.76h1.81l2.22-4.04Z"/>
  <path class="uuid-ff6a651a-1013-4e9e-87f0-81dd7940e39c" d="m405.81,58.36c-.61,0-1.1-.14-1.45-.44.35.3.84.44,1.45.44Z"/>
  <path class="uuid-ff6a651a-1013-4e9e-87f0-81dd7940e39c" d="m404.36,57.93c-.32-.28-.5-.71-.55-1.27.05.57.23,1,.55,1.27Z"/>
  <polygon class="uuid-ff6a651a-1013-4e9e-87f0-81dd7940e39c" points="384.29 52.82 385.54 50.37 385.54 50.37 384.29 52.82"/>
  <polygon class="uuid-ff6a651a-1013-4e9e-87f0-81dd7940e39c" points="416.43 30.25 416.24 28.37 416.24 28.37 416.43 30.25"/>
  <path class="uuid-ff6a651a-1013-4e9e-87f0-81dd7940e39c" d="m413.66,3.79c.1.23.17.49.19.8l.41,4.04h0l-.41-4.04c-.02-.31-.08-.57-.19-.8Z"/>
  <path class="uuid-ff6a651a-1013-4e9e-87f0-81dd7940e39c" d="m368.71,58.36c-.79,0-1.32-.24-1.54-.66.23.42.75.66,1.54.66Z"/>
  <path class="uuid-ff6a651a-1013-4e9e-87f0-81dd7940e39c" d="m396.94,3.23c.49-.3,1.06-.45,1.67-.45-.61,0-1.18.15-1.67.45Z"/>
  <path class="uuid-ff6a651a-1013-4e9e-87f0-81dd7940e39c" d="m475.62,22.37c1.3-5.78.29-11.11-2.84-15.03-3.19-3.99-8.29-6.19-14.35-6.19h-19.27c-2.12,0-3.73,1.31-4.21,3.41l-.92,4.07h1.63l.84-3.72c.08-.35.2-.65.35-.92.16-.27.35-.5.58-.68.45-.37,1.04-.57,1.73-.57h19.27c2.81,0,5.35.5,7.54,1.43,1.1.47,2.1,1.04,3.01,1.71,1.37,1,2.51,2.23,3.41,3.64,1.19,1.88,1.93,4.09,2.14,6.56.11,1.23.08,2.53-.09,3.88-.09.68-.21,1.37-.36,2.07-.57,2.54-1.63,4.93-3.06,7.1-.96,1.44-2.08,2.79-3.34,4.01-1.26,1.22-2.65,2.32-4.15,3.27-.75.48-1.52.91-2.32,1.31l3.7,7.13,5.63,10.83h0s0,0,0,0c.19.36.27.71.26,1.03s-.11.6-.28.84c-.35.48-1.02.78-1.91.78h-11.13c-.29,0-.55-.02-.79-.07-.71-.15-1.22-.53-1.56-1.27l-8.44-16.56h-4l-3.54,15.72c-.16.69-.47,1.23-.93,1.6-.45.37-1.04.57-1.73.57h-9.85c-.69,0-1.19-.2-1.48-.57-.14-.18-.23-.41-.27-.68-.04-.27-.02-.58.06-.92l6.26-27.79h-1.63l-6.18,27.44c-.33,1.48.1,2.43.53,2.96.42.52,1.23,1.15,2.7,1.15h9.85c2.12,0,3.74-1.31,4.21-3.41l3.26-14.49h1.76l8,15.69c.66,1.44,1.94,2.21,3.76,2.21h11.13c1.48,0,2.7-.6,3.34-1.64.57-.94.59-2.1.06-3.22-.02-.04-.03-.07-.05-.11l-8.61-16.58c6.28-3.62,10.82-9.5,12.28-16Z"/>
  <path class="uuid-ff6a651a-1013-4e9e-87f0-81dd7940e39c" d="m470.53,55.68c.19.36.27.71.26,1.03,0-.32-.08-.66-.26-1.03Z"/>
  <path class="uuid-ff6a651a-1013-4e9e-87f0-81dd7940e39c" d="m471.01,29.12c-.96,1.44-2.08,2.79-3.34,4.01,1.26-1.22,2.38-2.57,3.34-4.01Z"/>
  <polygon class="uuid-ff6a651a-1013-4e9e-87f0-81dd7940e39c" points="470.54 55.68 464.91 44.85 470.54 55.68 470.54 55.68"/>
  <path class="uuid-ff6a651a-1013-4e9e-87f0-81dd7940e39c" d="m465.96,4.17c1.1.47,2.1,1.04,3.01,1.71-.91-.67-1.92-1.24-3.01-1.71Z"/>
  <path class="uuid-ff6a651a-1013-4e9e-87f0-81dd7940e39c" d="m472.39,9.51c-.89-1.41-2.04-2.63-3.41-3.64,1.37,1,2.51,2.23,3.41,3.64Z"/>
  <path class="uuid-ff6a651a-1013-4e9e-87f0-81dd7940e39c" d="m474.44,19.95c.17-1.35.2-2.65.09-3.88.11,1.23.08,2.53-.09,3.88Z"/>
  <path class="uuid-ff6a651a-1013-4e9e-87f0-81dd7940e39c" d="m458.43,2.74h0c2.81,0,5.35.5,7.54,1.43-2.19-.93-4.73-1.43-7.54-1.43Z"/>
  <path class="uuid-ff6a651a-1013-4e9e-87f0-81dd7940e39c" d="m436.5,4.91c.08-.35.2-.65.35-.92-.16.27-.27.58-.35.92l-.84,3.72h0l.84-3.72Z"/>
  <path class="uuid-ff6a651a-1013-4e9e-87f0-81dd7940e39c" d="m302.18,5.45C299.11,1.94,293.96,0,287.68,0h-10.09c-10.19,0-21.75,5.65-24.59,18.29-3.09,13.71,8.83,17.9,14.56,19.91l.18.06c.76.26,1.46.5,2.11.74h-8.59s-.04,0-.07,0c-.03,0-.07,0-.1,0h-9.92c-2.21,0-3.87,1.4-4.24,3.57-.74,5.34.31,9.65,3.11,12.86,3.25,3.73,8.69,5.7,15.74,5.7h10.09c12.98,0,22.98-7.18,25.48-18.29,3.03-13.45-8.41-17.5-14.56-19.68-1.51-.54-2.71-.99-3.68-1.42h7.86s.04,0,.06,0c.02,0,.04,0,.07,0h9.96c2.21,0,3.87-1.4,4.24-3.57.72-5.29-.34-9.56-3.12-12.74Zm-33.28,39.01c-4.23,0-4.34-1.38-4.38-1.97-.05-.8-.23-1.41-.49-1.89h7.16c.33,0,.6.04.82.13.4.15.63.45.79.85.11.29.5.9.35,1.76-.14.86-3.01,1.13-4.25,1.13Zm17.36-19.79c6.65,2.35,14.96,5.78,13.9,15.65-.07.7-.19,1.42-.36,2.18-2.54,11.3-12.73,17.05-23.93,17.05-.04,0-.08,0-.12,0,7.95-2.69,13.7-8.65,15.51-16.69,3.03-13.45-8.41-17.5-14.56-19.68-4.75-1.7-6.77-2.59-6.42-4.15.33-1.45,1.96-2.34,4.28-2.34,2.89,0,3.03,1.74,3.03,1.77.23,1.66,2.32,3.3,2.44,3.39,1.35,1.1,3.62,1.91,6.23,2.84Zm17.48-6.75c-.12.73-.45,1.29-.91,1.67-.23.19-.5.33-.8.43-.3.1-.62.15-.97.15h-6.7c.42-.55.72-1.21.85-1.98.72-5.29-.34-9.56-3.12-12.74-1.42-1.63-3.31-2.9-5.54-3.82.38-.02.75-.04,1.13-.04h0c5.54,0,10.41,1.56,13.34,4.95.98,1.13,1.74,2.47,2.24,4.02.66,2.07.86,4.51.47,7.36Z"/>
  <path class="uuid-ff6a651a-1013-4e9e-87f0-81dd7940e39c" d="m460.27,8.63h-88.82c-5.4,0-9.79,4.38-9.79,9.79v.17c0,4.23,2.7,7.81,6.47,9.17.5.18,1,.34,1.53.44.58.11,1.18.18,1.79.18h88.82c5.4,0,9.79-4.38,9.79-9.79v-.17c0-5.4-4.38-9.79-9.79-9.79Zm-68.11,7.1c.04-.18.11-.32.21-.43.14-.14.33-.22.56-.22h.07c.49.03,1.16.05,2.01.05h2.7c.69,0,1.16,0,1.41-.02h.02c.52-.01.91-.02,1.17-.03.26-.01.4-.02.41-.02.13,0,.23.04.31.12.07.08.09.2.05.36l-.36,1.67c-.03.16-.1.27-.2.36-.1.08-.21.12-.33.12l-.92-.05c-.19,0-.4,0-.62-.02h-3.92c-.33.01-.64.02-.93.02l-1.1.03h-.02l-.35.02c-.15,0-.28-.06-.37-.17-.09-.12-.11-.27-.07-.47l.29-1.32Zm-5.72,3.13c-.42.36-.72.61-.89.74-.17.13-.31.19-.42.19s-.21-.06-.31-.17l-.18-.22c-.08-.08-.16-.16-.23-.25-.17-.2-.33-.35-.5-.45-.03-.02-.05-.03-.07-.03-.02.02-.03.05-.05.08-.48,1.42-1.15,2.71-2.02,3.87-.71.93-1.84,1.92-3.38,2.99-.1.07-.23.1-.37.1s-.24-.06-.3-.17c-.06-.12-.12-.22-.19-.31h-.02c-.24-.39-.46-.67-.66-.86-.12-.1-.17-.2-.15-.31v-.02c.03-.12.13-.22.32-.3,2.43-1.29,3.98-3.46,4.64-6.5.04-.19.13-.34.28-.47.14-.13.31-.19.51-.19h1.39c.15,0,.27.05.35.16.08.11.1.22.08.34l-.05.23-.04.2-.12.41c.05-.03.1-.07.16-.12.72-.56,1.21-.96,1.47-1.21.26-.24.4-.41.42-.5v-.02c-.02-.07-.11-.1-.29-.1-.02,0-2.35.09-6.98.28-.48.03-.73.05-.76.05-.16,0-.3-.05-.4-.16-.1-.1-.13-.26-.08-.45.15-.86.23-1.3.23-1.31.04-.19.13-.34.26-.45s.29-.17.47-.17c1.21.02,2.15.03,2.82.03,2.71,0,5.17-.11,7.36-.31.07-.01.11-.02.14-.02.14,0,.25.05.33.15l.8.74c.15.14.2.3.16.48-.02.11-.09.22-.19.33-.85,1.08-2.03,2.3-3.54,3.66Zm14.71,3.39c-.04.18-.11.32-.22.43-.14.14-.32.22-.54.22-.77-.02-1.26-.03-1.49-.03s-.51,0-.87-.02h-4.33c-1.06,0-1.73,0-2.02.02l-1.51.03-.55.02c-.15,0-.28-.06-.37-.17-.09-.11-.12-.25-.08-.43l.3-1.39c.04-.2.14-.36.29-.47.15-.12.31-.17.48-.17h.05c.62.04,1.51.07,2.68.07h2.96c1.45,0,2.64-.02,3.55-.05l1.51-.03c.17,0,.29.06.38.17.09.12.12.27.07.45l-.3,1.36Zm13.67-7.48c-.73,1.28-1.61,2.52-2.63,3.72-.07.08-.12.15-.13.23s.02.16.1.23c.53.52,1.01,1.07,1.44,1.65.09.11.12.23.09.36-.03.15-.15.3-.35.45-.47.39-.8.67-.99.84l-.34.33c-.13.14-.26.22-.39.22s-.24-.06-.32-.18c-.28-.47-.66-.99-1.12-1.55-.06-.08-.13-.12-.22-.12s-.18.05-.26.15c-2.02,1.76-4,3.11-5.95,4.02-.11.07-.25.1-.39.1s-.27-.08-.35-.25l-.28-.46c-.14-.3-.26-.51-.35-.63-.09-.12-.12-.25-.09-.38.04-.19.19-.34.45-.46,1.91-.89,3.71-2.09,5.4-3.59.08-.09.14-.17.15-.25.02-.08-.02-.15-.1-.23-.4-.38-.75-.66-1.02-.86-.09-.05-.18-.13-.28-.21-.14-.1-.22-.24-.22-.41,0-.03,0-.07,0-.12.03-.14.13-.29.29-.43l.85-.78c.14-.14.29-.22.44-.22s.28.03.38.09c.1.06.31.2.65.43.34.23.6.42.78.57.08.05.16.07.25.07.08,0,.16-.05.25-.15.85-1.04,1.53-2.02,2.03-2.95.17-.32.4-.48.68-.48.09,0,.17.02.24.05l1.12.41c.26.1.37.28.31.53-.02.08-.05.16-.1.25Zm19.12,3.01c.04-.2.18-.34.42-.41l.96-.3c.07-.02.14-.03.22-.03s.15.02.22.07c.12.07.19.15.22.26.01.09.03.17.04.23.01.07.03.13.05.2l.1,1.01c0,.08,0,.15,0,.22.01.2,0,.34,0,.41-.02.08-.06.16-.14.25-.12.13-.26.21-.44.25l-.91.25c-.07.01-.13.02-.17.02-.25,0-.39-.14-.4-.43,0-.09.01-.23,0-.41l-.11-.96c-.03-.17-.05-.29-.07-.38-.01-.09-.01-.16,0-.23Zm-1.36-.15c.1-.03.18-.05.26-.05.22,0,.36.11.42.34.06.23.11.46.14.69.03.24.05.43.07.59.02.15.03.27.03.33.03.18.03.31.01.4-.02.09-.07.18-.14.26-.1.12-.24.21-.42.27l-.92.27c-.07.02-.13.03-.19.03-.25,0-.38-.18-.38-.53-.03-.64-.11-1.17-.25-1.59-.03-.09-.03-.18,0-.28.04-.19.18-.32.42-.4l.95-.33Zm-4.13-1.47c-1.2,2.1-2.78,3.97-4.77,5.64-1.93,1.62-4.03,2.9-6.29,3.84-.11.04-.21.07-.29.07-.2,0-.33-.1-.4-.31-.14-.35-.27-.62-.39-.8-.12-.18-.19-.3-.21-.35s-.07-.11-.12-.18c-.05-.07-.06-.16-.04-.27.03-.15.14-.27.34-.33,2.51-.94,4.71-2.27,6.61-3.99.65-.58,1.24-1.21,1.78-1.89.06-.09.1-.15.11-.2.01-.07-.04-.1-.16-.1l-2.49.13c-.11,0-.21.04-.29.12-1.06,1.06-2.22,1.99-3.49,2.8-.12.08-.24.11-.37.11s-.23-.05-.3-.15c-.04-.07-.08-.12-.11-.16-.04-.04-.06-.09-.09-.14-.13-.16-.24-.3-.33-.4l-.2-.21-.15-.13-.06-.03c-.11-.1-.15-.21-.13-.33.03-.12.13-.23.3-.33,1-.56,2.01-1.33,3.03-2.3,1.05-.99,1.89-1.97,2.49-2.95.18-.28.4-.41.65-.41.08,0,.16.02.24.05l1.19.46c.14.06.23.15.25.28.02.07.02.13,0,.2-.02.1-.09.23-.2.38-.11.15-.21.3-.31.45-.1.14-.16.24-.18.28.02.01.04.02.06.02h.05c1.18,0,2.15-.06,2.92-.18h.02c.16,0,.27.03.35.08l.82.5c.2.13.28.31.23.53-.01.07-.04.14-.08.22Zm1.04-1.19l-.32.26c-.15.11-.31.17-.48.17s-.32-.08-.44-.25c-.2-.3-.35-.5-.44-.61-.09-.11-.18-.2-.25-.28-.11-.12-.14-.27-.1-.45.04-.18.14-.34.32-.48l.28-.23c.13-.1.26-.15.39-.15s.22.03.28.1c.06.07.12.12.16.15.04.03.08.08.11.13l.51.61c.07.09.14.19.21.29.07.11.09.22.06.36-.03.13-.13.26-.3.38Zm.79-.83c-.18,0-.32-.07-.42-.2-.21-.32-.36-.53-.46-.65-.1-.11-.18-.21-.25-.3-.11-.12-.14-.27-.1-.45.04-.18.14-.34.32-.48l.28-.23c.12-.1.25-.15.4-.15s.25.04.32.11c.04.05.07.09.11.12.04.04.08.08.11.12l.51.63c.04.05.08.1.11.15.03.04.07.1.13.17.06.07.07.17.04.29-.03.15-.13.29-.29.41l-.33.25c-.15.12-.31.18-.49.18Zm9.94,3.95c-1.12,2.78-2.92,4.83-5.41,6.15-.8.43-1.68.8-2.64,1.12-.09.02-.18.03-.26.03s-.16-.02-.23-.05c-.12-.08-.19-.18-.23-.3l-.07-.26c-.06-.21-.16-.43-.27-.65-.05-.11-.07-.22-.05-.31.04-.18.19-.3.46-.38,1.61-.4,2.97-1.06,4.09-1.98,1.12-.92,2-2.16,2.64-3.71.06-.2.18-.34.34-.43.12-.08.24-.12.37-.12.05,0,.09,0,.15.02l.77.13c.17.02.29.11.36.25.06.1.07.21.04.33-.01.05-.03.1-.05.15Zm13.74,5.13c-.35.23-.62.43-.8.58l-.29.21c-.07.08-.17.15-.31.23-.13.08-.28.11-.43.11s-.28-.08-.38-.25c-.22-.34-.38-.6-.48-.78-.27-.4-.54-.79-.82-1.17-.28-.39-.59-.75-.94-1.09-.04-.06-.11-.08-.2-.08s-.17.03-.25.1c-1.74,1.43-3.64,2.67-5.68,3.71-.1.05-.23.08-.4.08s-.3-.1-.4-.3l-.27-.6c-.05-.09-.09-.17-.14-.25-.04-.08-.09-.15-.14-.23-.1-.14-.14-.29-.11-.43.04-.19.2-.34.46-.46,1.4-.62,2.78-1.42,4.12-2.4,1.34-.98,2.54-2.07,3.59-3.26.09-.11.14-.19.15-.25.02-.11-.05-.17-.23-.17-.02,0-.8.06-2.34.17-1.54.11-2.32.16-2.34.16-.15,0-.28-.05-.37-.15-.09-.1-.13-.24-.12-.41.1-.9.15-1.38.16-1.42.05-.21.15-.37.32-.48.13-.08.28-.12.46-.13,1.39,0,2.52-.03,3.39-.09.87-.06,1.44-.1,1.72-.12.28-.02.6-.04.96-.07.36-.03.6-.05.69-.07.1-.02.17-.02.21-.02.13,0,.24.03.33.1l.87.65c.09.08.15.18.18.31,0,.07,0,.14-.01.21-.02.07-.04.15-.08.22-.77,1.27-1.59,2.37-2.47,3.29-.08.11-.13.19-.15.23-.02.09.01.17.1.25.82.79,1.61,1.69,2.38,2.68l.18.25c.06.08.12.17.19.27.06.11.08.22.05.36-.04.2-.17.36-.37.5Zm1.73-8.32l-.36.23c-.15.1-.31.15-.48.15-.18,0-.31-.08-.39-.25-.17-.34-.29-.57-.38-.69l-.2-.31c-.1-.16-.13-.31-.1-.46.04-.19.17-.35.39-.5l.29-.18c.13-.09.26-.13.4-.13s.24.06.32.18l.21.26c.04.07.07.12.1.15l.19.35c.09.09.17.22.24.4.06.14.07.29.04.43-.03.14-.12.27-.26.38Zm1.97-1.46c-.05.14-.15.26-.29.35l-.33.23c-.16.09-.33.13-.51.13s-.31-.1-.41-.31c-.13-.3-.31-.61-.54-.93-.11-.15-.15-.32-.11-.49.04-.17.17-.33.39-.49l.3-.18c.12-.09.25-.13.39-.13s.25.06.31.17c.08.12.15.21.2.28l.41.68c.18.27.25.47.21.61,0,.03-.02.06-.03.08Z"/>
</svg>