<?xml version="1.0" encoding="UTF-8"?>
<svg id="uuid-69a13b74-9d2b-4ec1-ad6e-4cda530d1f9a" data-name="图层 1" xmlns="http://www.w3.org/2000/svg" viewBox="0 0 62.16 61.14">
  <defs>
    <style>
      .uuid-f55bbde1-47d8-44f9-921b-c18f0aa92565 {
        fill: #fff;
      }
    </style>
  </defs>
  <path class="uuid-f55bbde1-47d8-44f9-921b-c18f0aa92565" d="m37.93,0C20.69,0,4.76,12.99.88,30.22c-2.01,8.91-.55,17.01,4.09,22.81,4.18,5.23,10.69,8.1,18.33,8.1,5.9,0,11.11-1.46,15.52-4.34-.01.95.32,1.59.64,2,.42.52,1.23,1.15,2.7,1.15h8.31c2.12,0,3.73-1.31,4.21-3.41l3.73-16.57,2.18-9.69c.33-1.48-.1-2.43-.53-2.96-.41-.51-1.2-1.12-2.62-1.15-.03,0-.06,0-.08,0h-22.66c-2.12,0-3.74,1.31-4.21,3.41l-1.69,7.52c-.33,1.48.1,2.43.53,2.96.42.52,1.23,1.15,2.71,1.15h6.35c-2.69,2.39-6.34,3.67-10.56,3.67-3.58,0-6.39-1.15-8.14-3.34-2-2.5-2.52-6.17-1.52-10.63,1.87-8.29,8.59-13.87,16.72-13.87,4.15,0,7.6,1.65,8.99,4.31.8,1.55,1.97,2.28,3.68,2.28h10.63c1.26,0,2.36-.45,3.08-1.27.69-.77.99-1.82.86-2.95C60.9,7.99,50.95,0,37.93,0Zm-21.83,35.61s0,.01,0,.02c0,0,0-.01,0-.02Zm41.27-7.85h0s0,0,0,0h0Z"/>
</svg>